<mxfile host="Electron" modified="2025-05-30T23:13:32.604Z" agent="Mozilla/5.0 (Windows NT 10.0; Win64; x64) AppleWebKit/537.36 (KHTML, like Gecko) draw.io/22.1.2 Chrome/114.0.5735.289 Electron/25.9.4 Safari/537.36" etag="cLSY0e6_KwKqabXs7aoG" version="22.1.2" type="device">
  <diagram name="Страница — 1" id="00R3lIN3bO4PS_L97c3q">
    <mxGraphModel dx="1456" dy="727" grid="1" gridSize="10" guides="1" tooltips="1" connect="1" arrows="1" fold="1" page="1" pageScale="1" pageWidth="827" pageHeight="1169" math="0" shadow="0">
      <root>
        <mxCell id="0" />
        <mxCell id="1" parent="0" />
        <mxCell id="8vSoMtomyJ-KpTdp_CqP-119" value="База данных" style="verticalAlign=top;align=left;spacingTop=8;spacingLeft=2;spacingRight=12;shape=cube;size=10;direction=south;fontStyle=4;html=1;whiteSpace=wrap;" vertex="1" parent="1">
          <mxGeometry x="210" y="360" width="180" height="120" as="geometry" />
        </mxCell>
        <mxCell id="8vSoMtomyJ-KpTdp_CqP-120" value="Сервис авторизации" style="verticalAlign=top;align=left;spacingTop=8;spacingLeft=2;spacingRight=12;shape=cube;size=10;direction=south;fontStyle=4;html=1;whiteSpace=wrap;" vertex="1" parent="1">
          <mxGeometry x="500" y="460" width="180" height="120" as="geometry" />
        </mxCell>
        <mxCell id="8vSoMtomyJ-KpTdp_CqP-121" value="Рабочая станция" style="verticalAlign=top;align=left;spacingTop=8;spacingLeft=2;spacingRight=12;shape=cube;size=10;direction=south;fontStyle=4;html=1;whiteSpace=wrap;" vertex="1" parent="1">
          <mxGeometry x="290" y="660" width="180" height="120" as="geometry" />
        </mxCell>
        <mxCell id="8vSoMtomyJ-KpTdp_CqP-122" value="Клиентское приложение&amp;nbsp;" style="text;html=1;strokeColor=none;fillColor=none;align=center;verticalAlign=middle;whiteSpace=wrap;rounded=0;" vertex="1" parent="1">
          <mxGeometry x="320" y="705" width="60" height="30" as="geometry" />
        </mxCell>
        <mxCell id="8vSoMtomyJ-KpTdp_CqP-123" value="SQLite" style="text;html=1;strokeColor=none;fillColor=none;align=center;verticalAlign=middle;whiteSpace=wrap;rounded=0;" vertex="1" parent="1">
          <mxGeometry x="210" y="400" width="60" height="30" as="geometry" />
        </mxCell>
        <mxCell id="8vSoMtomyJ-KpTdp_CqP-124" value="" style="endArrow=none;html=1;rounded=0;exitX=0;exitY=0;exitDx=55;exitDy=0;exitPerimeter=0;entryX=0;entryY=0;entryDx=65;entryDy=180;entryPerimeter=0;" edge="1" parent="1" source="8vSoMtomyJ-KpTdp_CqP-119" target="8vSoMtomyJ-KpTdp_CqP-120">
          <mxGeometry width="50" height="50" relative="1" as="geometry">
            <mxPoint x="550" y="560" as="sourcePoint" />
            <mxPoint x="600" y="510" as="targetPoint" />
          </mxGeometry>
        </mxCell>
        <mxCell id="8vSoMtomyJ-KpTdp_CqP-125" value="" style="endArrow=none;html=1;rounded=0;exitX=0;exitY=0;exitDx=0;exitDy=85;exitPerimeter=0;entryX=0.767;entryY=1.004;entryDx=0;entryDy=0;entryPerimeter=0;" edge="1" parent="1" source="8vSoMtomyJ-KpTdp_CqP-121" target="8vSoMtomyJ-KpTdp_CqP-120">
          <mxGeometry width="50" height="50" relative="1" as="geometry">
            <mxPoint x="550" y="560" as="sourcePoint" />
            <mxPoint x="600" y="510" as="targetPoint" />
          </mxGeometry>
        </mxCell>
      </root>
    </mxGraphModel>
  </diagram>
</mxfile>
